<?xml version="1.0" standalone="yes"?>
<svg xmlns="http://www.w3.org/2000/svg" width="878" height="169">
<path style="fill:#221e1e; stroke:none;" d="M0 0L0 169L878 169L878 0L0 0z"/>
<path style="fill:#ffffff; stroke:none;" d="M72 5C63.165 11.7413 53.3051 17.2699 44 23.3441C31.8011 31.3073 19.728 39.9139 7 47C12.4625 49.2922 20.113 48 26 48L67 48C73.1777 48 82.1461 49.6395 87.9606 47.3966C91.3406 46.0928 93.3487 42.6621 95.615 40.0394C98.5749 36.6138 102.035 34.1284 104 30C100.393 28.9765 96.7327 27.634 93 27.1844C86.0236 26.3442 78.2827 27.3967 74.4568 19.9846C72.0071 15.2387 73.9992 9.76427 72 5M325 14C325 32.1841 327.909 53.2592 323.471 71C321.616 78.4176 315.591 79.7617 312.028 85.3897C309.839 88.8471 311 95.0623 311 99C314.47 98.4875 317.797 97.5745 321 96.0988C344.384 85.324 339 54.9373 339 34L339 14L325 14M359 14L359 28L387 28C392.662 28 398.66 27.576 404 29.8542C412.842 33.6268 415.841 44.6481 408.66 51.6096C403.764 56.3551 397.299 56 391 56L359 56L359 99L374 99L374 70C379.118 70 387.247 68.4623 391.826 71.0278C401.668 76.5409 403.435 92.4323 413.184 97.9722C417.521 100.436 425.148 99 430 99C425.659 87.7157 415.5 76.4577 408 67C428.531 62.121 436.227 32.9612 417.985 20.2238C402.624 9.49744 376.737 14 359 14M456 99L516 99L516 86L471 86L471 14C467.486 14 459.473 12.5161 457.028 15.6034C455.699 17.2814 456.014 20.008 456.001 22L456 38L456 99M617 14L617 28L642 28C647.621 28.0004 653.851 27.7818 658.996 30.4529C670.486 36.4173 668.255 52.0569 657 56.7716C652.674 58.5836 647.582 58 643 58L617 58L617 99L632 99L632 72C643.744 72 657.365 73.5454 668 67.4676C684.375 58.1096 687.742 32.5706 671.961 20.7894C657.594 10.0645 633.822 14 617 14M704 28L732 28C737.995 28 744.383 27.4369 749.999 29.9699C760.309 34.6196 760.737 48.2947 750.996 53.9105C742.499 58.809 727.52 56 718 56C714.685 56 707.368 54.6492 705.028 57.6034C702.954 60.2214 704 65.8785 704 69L704 99L719 99L719 70C724.201 70 733.094 68.29 737.675 71.0278C747.183 76.7098 749.132 92.0737 758.515 97.9722C762.737 100.627 771.158 99 776 99C770.329 87.6 761.163 77.5294 754 67C759.163 65.2421 764.068 63.1107 767.786 58.9568C778.31 47.2009 774.864 26.1655 761 18.8241C750.256 13.135 737.778 14 726 14C721.103 14 709.582 11.8763 705.603 15.0278C702.645 17.3705 704 24.6502 704 28M269 15L269 34C269 55.0371 263.683 85.2873 287 96.2037C290.223 97.7126 293.494 98.5256 297 99C297 95.1247 298.184 88.8445 295.972 85.4699C292.31 79.8813 286.378 78.395 284.529 71C280.165 53.5538 283 32.8797 283 15L269 15M826 99C826 95.4218 827.09 89.589 824.972 86.4985C823.436 84.2565 820.195 83.4521 818 82.0309C814.129 79.5247 810.681 75.9926 808.363 72C798.542 55.0787 807.375 33.3758 826 28L826 15C820.933 15.2209 816.54 16.4854 812 18.7608C781.855 33.8704 781.771 80.0286 812 95.1898C816.454 97.4238 821.033 98.773 826 99M838 15C838 18.5806 836.911 24.4077 839.028 27.5015C841.129 30.5732 846.132 31.8772 848.96 34.3287C855.414 39.923 858.992 48.5382 858.992 57C858.992 65.4618 855.414 74.0769 848.96 79.6713C846.132 82.1228 841.129 83.4268 839.028 86.4985C836.911 89.5921 838 95.4195 838 99C852.71 96.1457 864.962 88.4381 870.743 74C880.495 49.6451 866.772 16.3148 838 15M93 109C100.022 106.914 107.484 100.583 108.775 93C109.676 87.7121 108.538 82.3019 109.669 77C111.299 69.3603 115.408 63.3837 121.004 58.0432C131.6 47.9311 144.31 48 158 48L193 48C207.35 48 221.224 43.9312 222 27L163 27C149.403 27 135.981 25.9224 123 30.696C92.7732 41.8114 78.0182 80.5679 93 109M6 141L66 141C78.3039 141 91.1918 142.278 103 138.135C133.548 127.418 151.643 88.2793 135 59C127.559 61.3759 120.369 67.9181 119.217 76C118.554 80.6459 119.565 85.3051 118.688 90C117.295 97.4628 113.314 104.483 107.829 109.7C97.1552 119.855 83.8255 120 70 120L37 120C21.8933 120 7.5717 123.111 6 141M124 138C127.352 138.776 130.606 140.109 134 140.674C141.23 141.88 149.488 140.159 153.543 148.015C155.826 152.439 155 158.183 155 163C177.981 150.766 198.26 133.66 221 121C215.538 118.708 207.887 120 202 120L161 120C154.882 120 145.828 118.328 140.09 120.603C136.79 121.912 134.772 125.413 132.561 127.996C129.648 131.401 126.03 133.991 124 138M269 122L269 127L294 127L294 122L269 122M302 122L302 154L308 154L308 122L302 122M323 122L323 135L313 135L313 141L323 141L323 154L328 154L328 122L323 122M337 122L337 127L361 127L361 122L337 122M399 122L399 154C403.997 154 409.003 154.09 413.999 153.995C415.873 153.96 418.675 154.18 419.914 152.416C421.213 150.565 419.61 148.84 417.851 148.318C413.73 147.095 408.279 148 404 148L404 122L399 122M441 122L441 154L446 154L446 122L441 122M464 122C468.494 130.065 474.425 137.44 479.72 145C482.914 149.561 485.126 153.548 491 154L491 122L485 122L485 143C479.669 135.556 474.113 122.331 464 122M497 122L497 154L503 154C503.051 139.602 518.406 133.996 524 122C514.259 122.115 509.424 130.575 503 137L503 122L497 122M560 122L560 127L583 127L583 122L560 122M591 122C593.38 126.274 600.213 132.712 600.418 137.576C600.635 142.707 592.882 149.107 591 154C600.198 153.89 603.28 145.885 608.026 139C611.823 133.492 616.398 128.187 619 122C611.805 122.234 608.903 126.863 606 133C601.17 127.417 598.956 122.095 591 122M627 122L627 127C631.291 127 637.048 126.042 640.941 128.179C644.036 129.878 645.756 133.738 642.677 136.397C639.122 139.468 631.383 138 627 138L627 154L632 154L632 144C636.915 143.986 642.604 144.009 646.786 140.995C652.241 137.063 652.087 128.668 646.891 124.653C641.586 120.553 633.283 122 627 122M661 122L661 127L684 127L684 122L661 122M693 122L693 127C697.788 127 711.146 124.919 712.079 132.025C713.1 139.806 697.294 138 693 138L693 154L699 154L699 143C708.744 143.317 710.037 153.882 720 154C717.468 149.555 714.202 145.633 712 141C719.705 138.237 721.209 128.614 713.956 124.009C708.295 120.415 699.419 122 693 122M727 122C727.76 131.762 745.625 128 753 128L753 122L727 122M463 129C463 136.282 459.334 153.247 469 154C469 144.732 470.442 135.827 463 129M743 154L743 132C741.242 132.137 739.226 132.025 738.023 133.603C736.551 135.535 737.005 138.733 737 141C736.988 146.986 735.526 153.418 743 154M279 133L279 153L284 153L284 133L279 133M337 135L337 140L359 140L359 135L337 135M560 135L560 140L581 140L581 135L560 135M661 135L661 140L682 140L682 135L661 135M514 140C508.813 147.806 517.524 153.911 525 154C522.086 148.935 518.375 143.882 514 140M610 142C606.9 149.486 613.044 153.917 620 154C617.65 149.782 614.809 145.922 612 142L610 142M337 148L337 154L361 154L361 148L337 148M560 148L560 154L583 154L583 148L560 148M661 148L661 154L684 154L684 148L661 148z"/>
</svg>
